<svg width="142" height="117" viewBox="0 0 142 117" fill="none" xmlns="http://www.w3.org/2000/svg">
<rect x="110.832" y="29.4059" width="30.3359" height="4.40864" transform="rotate(-32 110.832 29.4059)" fill="#FC9E1C" fill-opacity="0.65"/>
<rect x="41.8698" y="63.8868" width="22.9471" height="4.40864" transform="rotate(60 41.8698 63.8868)" fill="#F62584" fill-opacity="0.65"/>
<circle cx="126.416" cy="67.1564" r="5.73246" fill="#9DED1A" fill-opacity="0.35"/>
<circle cx="136.268" cy="89.3227" r="5.73246" fill="#BA3E03" fill-opacity="0.75"/>
<path d="M40.7129 11.1213L34.5881 12.3118L31.5631 6.85468L35.8184 2.29143L41.4733 4.92834L40.7129 11.1213Z" fill="#4BC8EF" fill-opacity="0.65"/>
<path d="M20.6733 74.9863L13.2427 66.4384L24.3607 64.2773L20.6733 74.9863Z" fill="#9DED1A"/>
<path d="M79.6723 115.951L73.846 112.982L73.5037 106.452L78.9879 102.89L84.8142 105.859L85.1564 112.389L79.6723 115.951Z" fill="#FC9E1C" fill-opacity="0.75"/>
<path d="M51.2526 18.5306L51.9298 26.2716L45.5646 30.7286L38.5221 27.4446L37.8448 19.7037L44.2101 15.2467L51.2526 18.5306Z" fill="#F62584" fill-opacity="0.45"/>
<path d="M68.7793 44.8984L68.2873 39.2742L62.7864 38.0042L67.9832 35.7983L67.4911 30.1742L71.195 34.435L76.3918 32.2291L73.4841 37.0683L77.188 41.3291L71.687 40.0591L68.7793 44.8984Z" fill="#755FFE"/>
<path d="M0.22821 109.073L5.05987 107.475L6.99151 102.766L8.59 107.598L13.2984 109.53L8.46672 111.128L6.53509 115.836L4.93659 111.005L0.22821 109.073Z" fill="#9AF5FC" fill-opacity="0.9"/>
</svg>
